# xmcd
#
# Track frame offsets:
#	182
#	28147
#	39762
#	53812
#	69845
#	83942
#	102495
#	117460
#	136407
#	154125
#
# Disc length: 2204 seconds
#
# Revision: 1
# Processed by: cddbd v1.4b42PL0 Copyright (c) Steve Scherf et al.
# Submitted via: audiograbber 1.80
#
DISCID=81089a0a
DTITLE=Nilson Chaves e Vital Lima - Waldemar
DYEAR=1900
DGENRE=
TTITLE0=Abá-Logum - Abaluaiê - No Jardim Sem Oeira - Sem Eu
TTITLE1=Boi-Bumbá
TTITLE2=Tamba-Tajá
TTITLE3=Adeus
TTITLE4=Uirapurú
TTITLE5=Hei de Morrer Cantando
TTITLE6=Côco Peneruê
TTITLE7=Foi Boto, Sinhá!
TTITLE8=Manha-Nungara
TTITLE9=Curupira
EXTD=
EXTT0=
EXTT1=
EXTT2=
EXTT3=
EXTT4=
EXTT5=
EXTT6=
EXTT7=
EXTT8=
EXTT9=
PLAYORDER=
